<svg id="Логотип" xmlns="http://www.w3.org/2000/svg" xmlns:xlink="http://www.w3.org/1999/xlink" viewBox="0 0 303.82 68.77"><defs><style>.cls-1{fill:#2b2a29;}.cls-2,.cls-3,.cls-4,.cls-5,.cls-6{fill-rule:evenodd;}.cls-2{fill:url(#Безымянный_градиент_4);}.cls-3{fill:url(#Безымянный_градиент_4-2);}.cls-4{fill:url(#Безымянный_градиент_4-3);}.cls-5{fill:url(#Безымянный_градиент_4-4);}.cls-6{fill:#fefefe;}</style><linearGradient id="Безымянный_градиент_4" x1="166.61" y1="1145.99" x2="202" y2="1149.63" gradientTransform="matrix(0.76, 0, 0, -0.76, -118.21, 888.93)" gradientUnits="userSpaceOnUse"><stop offset="0" stop-color="#166792"/><stop offset="1" stop-color="#23afe4"/></linearGradient><linearGradient id="Безымянный_градиент_4-2" x1="225.27" y1="1154.89" x2="228.3" y2="1119.45" xlink:href="#Безымянный_градиент_4"/><linearGradient id="Безымянный_градиент_4-3" x1="234.13" y1="1096.61" x2="198.69" y2="1093.33" xlink:href="#Безымянный_градиент_4"/><linearGradient id="Безымянный_градиент_4-4" x1="175.7" y1="1087.43" x2="172.65" y2="1123.21" xlink:href="#Безымянный_градиент_4"/></defs><title>ArtBliss - Логотип EN 1.0 </title><path id="path54" class="cls-1" d="M112.11,29.12h2.09l15.94,40.67a3.79,3.79,0,0,0,3.92,2.46h1.39v2.28H117.71V72.25h1.43a9.32,9.32,0,0,0,3.91-.59,1.39,1.39,0,0,0,.78-1.29,3.1,3.1,0,0,0-.22-1.07l-3.67-9.42H102.36l-2.09,5.39a10.59,10.59,0,0,0-.82,3.42,3.13,3.13,0,0,0,1.37,2.52,6.46,6.46,0,0,0,4,1.06h1.51v2.28H90.17V72.27a6.72,6.72,0,0,0,4.11-1.14,9.84,9.84,0,0,0,2.77-4.27l15.06-37.72Zm-.84,8.56-7.93,19.84H119Zm25.35,8.63,10.16-.49V57.19a25.22,25.22,0,0,1,3.9-8.5,7,7,0,0,1,5.67-2.89A5,5,0,0,1,160,47.19a5,5,0,0,1,1.37,3.73,4.41,4.41,0,0,1-.92,2.95,3,3,0,0,1-2.31,1.05A2.79,2.79,0,0,1,156,54a3.41,3.41,0,0,1-.82-2.44,3.84,3.84,0,0,1,.46-1.85,3.69,3.69,0,0,0,.45-.94c0-.29-.19-.45-.56-.45a4.53,4.53,0,0,0-2.8,1.44,13.15,13.15,0,0,0-3.32,5.53,30.08,30.08,0,0,0-1.79,8.75v6.06a1.79,1.79,0,0,0,.72,1.56,4.36,4.36,0,0,0,2.48.55h3.57v2.28H136.82V72.23h2.79a3.54,3.54,0,0,0,2.15-.55,1.63,1.63,0,0,0,.72-1.35V52.4a4.26,4.26,0,0,0-.88-3,3.25,3.25,0,0,0-2.5-.93h-2.48V46.31Zm35.27-11.45h2V46.31h9.12v2.77h-9.12V67.21A5.31,5.31,0,0,0,175,70.8a3.51,3.51,0,0,0,2.79,1.25,4.18,4.18,0,0,0,3.44-1.91c1-1.27,1.5-3.36,1.66-6.29h2q-.18,5.62-2.56,8.36a7.79,7.79,0,0,1-6.15,2.73A7.51,7.51,0,0,1,170.78,73a6.69,6.69,0,0,1-2-5v-19h-4.92V47A7.91,7.91,0,0,0,169,44.16c1.76-2.23,2.7-5.33,2.85-9.34Zm17.45-4.8h23.14q6.83,0,10.43,3a9.41,9.41,0,0,1,3.62,7.54A9,9,0,0,1,224,47a17.29,17.29,0,0,1-7.62,4.16c4.2.88,7.34,2.29,9.45,4.16A9.25,9.25,0,0,1,229,62.52a10.06,10.06,0,0,1-1.78,5.88,13.4,13.4,0,0,1-6,4.33,23.88,23.88,0,0,1-9.43,1.78H189.34V72.23H193a4.2,4.2,0,0,0,2.42-.55,1.49,1.49,0,0,0,.76-1.23V34.86a2.41,2.41,0,0,0-.74-1.91,3.29,3.29,0,0,0-2.19-.65h-3.9V30.06Zm13.24,20.39H211a8.39,8.39,0,0,0,6.17-2.27c1.52-1.5,2.3-4,2.3-7.42a9.63,9.63,0,0,0-1.09-5,6.15,6.15,0,0,0-3.18-2.6,22.14,22.14,0,0,0-7.21-.82c-2.42,0-3.93.18-4.51.53a2,2,0,0,0-.88,1.84V50.45Zm0,2.28V69.86a2.24,2.24,0,0,0,.7,1.8,4.06,4.06,0,0,0,2.54.61h5.39c3.56,0,6.19-.79,7.91-2.37s2.56-4,2.56-7.34A9.59,9.59,0,0,0,219,55.37a9.84,9.84,0,0,0-7.3-2.64Zm41-23.16V70.35a1.66,1.66,0,0,0,.51,1.29,2.8,2.8,0,0,0,1.81.61h3v2.28h-16V72.25h2.82a2.8,2.8,0,0,0,2.05-.67,2.52,2.52,0,0,0,.68-1.87V35.47a2.68,2.68,0,0,0-.82-2.19,4.06,4.06,0,0,0-2.75-1h-2.54V30l11.21-.49Zm16.13-.06a3.11,3.11,0,0,1,2.36,1,3.27,3.27,0,0,1,1,2.4,3.14,3.14,0,0,1-1,2.34,3.31,3.31,0,0,1-4.76,0,3.27,3.27,0,0,1-1-2.36,3.11,3.11,0,0,1,1-2.36A3.2,3.2,0,0,1,259.67,29.51ZM251.8,46.33,263.07,46V70.23a1.73,1.73,0,0,0,.49,1.41,2.65,2.65,0,0,0,1.74.61h3.18v2.28H252.4V72.25h3A2.25,2.25,0,0,0,258,69.73V52a3.21,3.21,0,0,0-1-2.54,4.26,4.26,0,0,0-2.87-.86H251.8V46.33ZM275.08,64c1.25,3.43,2.66,5.8,4.28,7.12a9,9,0,0,0,6,2,7.78,7.78,0,0,0,5-1.43A4.43,4.43,0,0,0,292.09,68a3.77,3.77,0,0,0-.64-2.19,4,4,0,0,0-1.78-1.43A42.86,42.86,0,0,0,283.75,63a23.4,23.4,0,0,1-6.36-1.9,7.16,7.16,0,0,1-2.8-2.71,7.5,7.5,0,0,1-1-3.77A8.55,8.55,0,0,1,275.65,49a9.24,9.24,0,0,1,7.5-3.2,11.3,11.3,0,0,1,6.79,2.28l2-2.1h1.23l.78,10h-2a12.54,12.54,0,0,0-3.58-6.13,8.4,8.4,0,0,0-5.56-1.87,6.82,6.82,0,0,0-4.5,1.38,4.32,4.32,0,0,0-1.62,3.4,3.59,3.59,0,0,0,1.51,2.93c1,.8,2.91,1.43,5.78,1.88a46.77,46.77,0,0,1,6.5,1.38,7.91,7.91,0,0,1,3.83,2.8,7.63,7.63,0,0,1,1.35,4.59,8.15,8.15,0,0,1-2.93,6.32,10.85,10.85,0,0,1-7.44,2.58,12.65,12.65,0,0,1-7.78-2.71l-2.18,2.52h-1.59l-.6-11.21h2Zm28.5,0c1.25,3.43,2.65,5.8,4.28,7.12a9,9,0,0,0,5.95,2,7.74,7.74,0,0,0,5-1.43A4.44,4.44,0,0,0,320.59,68a3.77,3.77,0,0,0-.64-2.19,4,4,0,0,0-1.78-1.43A43.26,43.26,0,0,0,312.25,63a23.38,23.38,0,0,1-6.37-1.9,7.13,7.13,0,0,1-2.79-2.71,7.51,7.51,0,0,1-1-3.77A8.6,8.6,0,0,1,304.14,49a9.26,9.26,0,0,1,7.5-3.2,11.31,11.31,0,0,1,6.8,2.28l2-2.1h1.23l.79,10h-2a12.53,12.53,0,0,0-3.57-6.13,8.41,8.41,0,0,0-5.57-1.87,6.79,6.79,0,0,0-4.49,1.38,4.32,4.32,0,0,0-1.62,3.4,3.61,3.61,0,0,0,1.5,2.93q1.47,1.2,5.79,1.88A47.13,47.13,0,0,1,319,59a7.91,7.91,0,0,1,3.83,2.8,7.63,7.63,0,0,1,1.35,4.59,8.15,8.15,0,0,1-2.93,6.32,10.88,10.88,0,0,1-7.45,2.58A12.62,12.62,0,0,1,306,72.6l-2.19,2.52h-1.58l-.6-11.21h2Z" transform="translate(-20.31 -25.58)"/><g id="g66"><polygon id="polygon56" class="cls-2" points="10.33 0 34.41 6.21 27.17 26.62 18.44 30 10.33 0"/><polygon id="polygon58" class="cls-3" points="69.03 10.64 62.48 34.28 42.11 27.01 38.87 18.22 69.03 10.64"/><polygon id="polygon60" class="cls-4" points="58.5 68.77 34.88 62.29 41.91 41.99 50.66 38.69 58.5 68.77"/><polygon id="polygon62" class="cls-5" points="0 58.34 6.68 34.2 27.15 41.84 30.41 50.7 0 58.34"/><polygon id="polygon64" class="cls-6" points="34.41 6.21 42.52 27.09 62.74 34.34 42.05 42.07 34.88 62.29 27.07 41.8 6.56 34.16 27.17 26.62 34.41 6.21"/></g><path class="cls-1" d="M94.48,89.94c-2.5,0-4.14-1.84-4.14-4.64,0-2.51,1.53-4.62,4.21-4.62a3.48,3.48,0,0,1,3.7,3H96.71A2.06,2.06,0,0,0,94.53,82c-1.86,0-2.62,1.68-2.62,3.3s.72,3.32,2.61,3.32c1.44,0,2.09-1,2.26-2.26h1.55A3.66,3.66,0,0,1,94.48,89.94Z" transform="translate(-20.31 -25.58)"/><path class="cls-1" d="M104.2,80.88c1.59,0,3,.63,3,2.46a2.15,2.15,0,0,1-1.47,2.17c1.13.25,1.24,1.11,1.32,2s.11,1.8.47,2.19h-1.67a4.21,4.21,0,0,1-.28-1.76c-.09-1.39-.44-1.89-1.94-1.89h-2.06v3.65H100V80.88Zm-2.64,4h2c1,0,2-.15,2-1.42s-.91-1.35-1.84-1.35h-2.25Z" transform="translate(-20.31 -25.58)"/><path class="cls-1" d="M115.45,82.19h-4.84v2.34h4.49v1.26h-4.49V88.4h4.91v1.32h-6.45V80.88h6.38Z" transform="translate(-20.31 -25.58)"/><path class="cls-1" d="M124.68,89.72H123l-.84-2.34h-3.51l-.87,2.34h-1.6l3.42-8.85h1.65Zm-4.24-7.24-1.38,3.73h2.7Z" transform="translate(-20.31 -25.58)"/><path class="cls-1" d="M131,82.22H128.2v7.5h-1.55v-7.5h-2.82V80.88H131Z" transform="translate(-20.31 -25.58)"/><path class="cls-1" d="M133.93,89.72h-1.56V80.88h1.56Z" transform="translate(-20.31 -25.58)"/><path class="cls-1" d="M136.75,80.88l2.24,7,2.28-7h1.58l-3,8.84h-1.73l-3-8.84Z" transform="translate(-20.31 -25.58)"/><path class="cls-1" d="M145.59,89.72H144V80.88h1.56Z" transform="translate(-20.31 -25.58)"/><path class="cls-1" d="M154.13,82.22h-2.82v7.5h-1.55v-7.5h-2.82V80.88h7.19Z" transform="translate(-20.31 -25.58)"/><path class="cls-1" d="M159.33,86.21v3.51H157.8V86.21l-3.34-5.33h1.79l2.35,3.91,2.32-3.91h1.74Z" transform="translate(-20.31 -25.58)"/><path class="cls-1" d="M164.08,89.72h-1.69V88.05h1.69Z" transform="translate(-20.31 -25.58)"/><path class="cls-1" d="M175.39,89.72h-1.47V82.91l-2.46,6.81h-1.27l-2.52-6.81v6.81H166.2V80.88h2.18l2.47,6.92,2.38-6.92h2.16Z" transform="translate(-20.31 -25.58)"/><path class="cls-1" d="M185,89.72h-1.67l-.84-2.34H179l-.87,2.34h-1.61l3.42-8.85h1.65Zm-4.24-7.24-1.38,3.73h2.7Z" transform="translate(-20.31 -25.58)"/><path class="cls-1" d="M190.32,80.88c1.59,0,3,.63,3,2.46a2.15,2.15,0,0,1-1.47,2.17c1.13.25,1.24,1.11,1.32,2s.11,1.8.47,2.19H192a4.21,4.21,0,0,1-.28-1.76c-.09-1.39-.44-1.89-1.94-1.89h-2.06v3.65h-1.54V80.88Zm-2.64,4h2c1,0,2-.15,2-1.42s-.91-1.35-1.84-1.35h-2.25Z" transform="translate(-20.31 -25.58)"/><path class="cls-1" d="M199.07,84.41l3.76,5.31h-1.92L198,85.49l-1.27,1.27v3h-1.54V80.88h1.54v4l3.92-4h2Z" transform="translate(-20.31 -25.58)"/><path class="cls-1" d="M210.39,82.19h-4.84v2.34H210v1.26h-4.49V88.4h4.91v1.32H204V80.88h6.38Z" transform="translate(-20.31 -25.58)"/><path class="cls-1" d="M218.51,82.22h-2.82v7.5h-1.55v-7.5h-2.82V80.88h7.19Z" transform="translate(-20.31 -25.58)"/><path class="cls-1" d="M221.42,89.72h-1.57V80.88h1.57Z" transform="translate(-20.31 -25.58)"/><path class="cls-1" d="M230.77,89.72h-1.6L225,83.22v6.5h-1.46V80.88h1.62l4.08,6.52V80.88h1.49Z" transform="translate(-20.31 -25.58)"/><path class="cls-1" d="M240.64,89.72h-1l-.24-1a3.3,3.3,0,0,1-2.75,1.27c-2.49,0-4.19-1.86-4.19-4.58,0-2.57,1.59-4.67,4.32-4.67a3.52,3.52,0,0,1,3.74,3H239a2.09,2.09,0,0,0-2.25-1.7c-1.7,0-2.74,1.28-2.74,3.34s1,3.34,2.79,3.34a2.31,2.31,0,0,0,2.41-2.5h-2.38V85h3.78Z" transform="translate(-20.31 -25.58)"/><path class="cls-1" d="M244.26,89.72h-1.69V88.05h1.69Z" transform="translate(-20.31 -25.58)"/><path class="cls-1" d="M250.25,80.88c1.82,0,3.08.85,3.08,2.7a2.6,2.6,0,0,1-2.87,2.74H248v3.4h-1.55V80.88ZM248,85.07h2.16c1,0,1.69-.41,1.69-1.46S251,82.17,250,82.17h-2Z" transform="translate(-20.31 -25.58)"/><path class="cls-1" d="M259.15,80.88c1.59,0,3,.63,3,2.46a2.14,2.14,0,0,1-1.46,2.17c1.13.25,1.24,1.11,1.31,2s.12,1.8.48,2.19h-1.67a4.21,4.21,0,0,1-.28-1.76c-.09-1.39-.44-1.89-1.94-1.89h-2.06v3.65H255V80.88Zm-2.64,4h2.05c1,0,2-.15,2-1.42s-.9-1.35-1.83-1.35h-2.25Z" transform="translate(-20.31 -25.58)"/><path class="cls-1" d="M272.07,85.3c0,2.76-1.72,4.64-4.25,4.64s-4.24-1.88-4.24-4.64c0-2.59,1.56-4.63,4.27-4.63C270.35,80.67,272.07,82.56,272.07,85.3Zm-6.93,0c0,2.06,1,3.35,2.71,3.35s2.66-1.32,2.66-3.34S269.46,82,267.82,82,265.14,83.28,265.14,85.28Z" transform="translate(-20.31 -25.58)"/><path class="cls-1" d="M283,89.72H281.5V82.91L279,89.72h-1.27l-2.52-6.81v6.81h-1.46V80.88H276l2.47,6.92,2.39-6.92H283Z" transform="translate(-20.31 -25.58)"/><path class="cls-1" d="M293.18,85.3c0,2.76-1.73,4.64-4.25,4.64s-4.25-1.88-4.25-4.64c0-2.59,1.57-4.63,4.27-4.63C291.45,80.67,293.18,82.56,293.18,85.3Zm-6.93,0c0,2.06,1,3.35,2.7,3.35s2.66-1.32,2.66-3.34-1-3.32-2.68-3.32S286.25,83.28,286.25,85.28Z" transform="translate(-20.31 -25.58)"/><path class="cls-1" d="M301.24,82.22h-2.82v7.5h-1.55v-7.5h-2.82V80.88h7.19Z" transform="translate(-20.31 -25.58)"/><path class="cls-1" d="M304.15,89.72h-1.57V80.88h1.57Z" transform="translate(-20.31 -25.58)"/><path class="cls-1" d="M314.37,85.3c0,2.76-1.73,4.64-4.25,4.64s-4.25-1.88-4.25-4.64c0-2.59,1.57-4.63,4.27-4.63C312.64,80.67,314.37,82.56,314.37,85.3Zm-6.93,0c0,2.06,1,3.35,2.7,3.35s2.66-1.32,2.66-3.34-1-3.32-2.68-3.32S307.44,83.28,307.44,85.28Z" transform="translate(-20.31 -25.58)"/><path class="cls-1" d="M323.25,89.72h-1.6l-4.13-6.5v6.5h-1.46V80.88h1.62l4.08,6.52V80.88h1.49Z" transform="translate(-20.31 -25.58)"/></svg>