<svg id="Логотип" xmlns="http://www.w3.org/2000/svg" xmlns:xlink="http://www.w3.org/1999/xlink" viewBox="0 0 303.82 68.77"><defs><style>.cls-1{fill:#2b2a29;}.cls-2,.cls-3,.cls-4,.cls-5,.cls-6{fill-rule:evenodd;}.cls-2{fill:url(#Безымянный_градиент_4);}.cls-3{fill:url(#Безымянный_градиент_4-2);}.cls-4{fill:url(#Безымянный_градиент_4-3);}.cls-5{fill:url(#Безымянный_градиент_4-4);}.cls-6{fill:#fefefe;}</style><linearGradient id="Безымянный_градиент_4" x1="166.61" y1="1145.99" x2="202" y2="1149.63" gradientTransform="matrix(0.76, 0, 0, -0.76, -118.21, 888.93)" gradientUnits="userSpaceOnUse"><stop offset="0" stop-color="#166792"/><stop offset="1" stop-color="#23afe4"/></linearGradient><linearGradient id="Безымянный_градиент_4-2" x1="225.27" y1="1154.89" x2="228.3" y2="1119.45" xlink:href="#Безымянный_градиент_4"/><linearGradient id="Безымянный_градиент_4-3" x1="234.13" y1="1096.61" x2="198.69" y2="1093.33" xlink:href="#Безымянный_градиент_4"/><linearGradient id="Безымянный_градиент_4-4" x1="175.7" y1="1087.43" x2="172.65" y2="1123.21" xlink:href="#Безымянный_градиент_4"/></defs><title>ArtBliss - Логотип RU 1.0</title><path id="path54" class="cls-1" d="M112.11,29.12h2.09l15.94,40.67a3.79,3.79,0,0,0,3.92,2.46h1.39v2.28H117.71V72.25h1.43a9.32,9.32,0,0,0,3.91-.59,1.39,1.39,0,0,0,.78-1.29,3.1,3.1,0,0,0-.22-1.07l-3.67-9.42H102.36l-2.09,5.39a10.59,10.59,0,0,0-.82,3.42,3.13,3.13,0,0,0,1.37,2.52,6.46,6.46,0,0,0,4,1.06h1.51v2.28H90.17V72.27a6.72,6.72,0,0,0,4.11-1.14,9.84,9.84,0,0,0,2.77-4.27l15.06-37.72Zm-.84,8.56-7.93,19.84H119Zm25.35,8.63,10.16-.49V57.19a25.22,25.22,0,0,1,3.9-8.5,7,7,0,0,1,5.67-2.89A5,5,0,0,1,160,47.19a5,5,0,0,1,1.37,3.73,4.41,4.41,0,0,1-.92,2.95,3,3,0,0,1-2.31,1.05A2.79,2.79,0,0,1,156,54a3.41,3.41,0,0,1-.82-2.44,3.84,3.84,0,0,1,.46-1.85,3.69,3.69,0,0,0,.45-.94c0-.29-.19-.45-.56-.45a4.53,4.53,0,0,0-2.8,1.44,13.15,13.15,0,0,0-3.32,5.53,30.08,30.08,0,0,0-1.79,8.75v6.06a1.79,1.79,0,0,0,.72,1.56,4.36,4.36,0,0,0,2.48.55h3.57v2.28H136.82V72.23h2.79a3.54,3.54,0,0,0,2.15-.55,1.63,1.63,0,0,0,.72-1.35V52.4a4.26,4.26,0,0,0-.88-3,3.25,3.25,0,0,0-2.5-.93h-2.48V46.31Zm35.27-11.45h2V46.31h9.12v2.77h-9.12V67.21A5.31,5.31,0,0,0,175,70.8a3.51,3.51,0,0,0,2.79,1.25,4.18,4.18,0,0,0,3.44-1.91c1-1.27,1.5-3.36,1.66-6.29h2q-.18,5.62-2.56,8.36a7.79,7.79,0,0,1-6.15,2.73A7.51,7.51,0,0,1,170.78,73a6.69,6.69,0,0,1-2-5v-19h-4.92V47A7.91,7.91,0,0,0,169,44.16c1.76-2.23,2.7-5.33,2.85-9.34Zm17.45-4.8h23.14q6.83,0,10.43,3a9.41,9.41,0,0,1,3.62,7.54A9,9,0,0,1,224,47a17.29,17.29,0,0,1-7.62,4.16c4.2.88,7.34,2.29,9.45,4.16A9.25,9.25,0,0,1,229,62.52a10.06,10.06,0,0,1-1.78,5.88,13.4,13.4,0,0,1-6,4.33,23.88,23.88,0,0,1-9.43,1.78H189.34V72.23H193a4.2,4.2,0,0,0,2.42-.55,1.49,1.49,0,0,0,.76-1.23V34.86a2.41,2.41,0,0,0-.74-1.91,3.29,3.29,0,0,0-2.19-.65h-3.9V30.06Zm13.24,20.39H211a8.39,8.39,0,0,0,6.17-2.27c1.52-1.5,2.3-4,2.3-7.42a9.63,9.63,0,0,0-1.09-5,6.15,6.15,0,0,0-3.18-2.6,22.14,22.14,0,0,0-7.21-.82c-2.42,0-3.93.18-4.51.53a2,2,0,0,0-.88,1.84V50.45Zm0,2.28V69.86a2.24,2.24,0,0,0,.7,1.8,4.06,4.06,0,0,0,2.54.61h5.39c3.56,0,6.19-.79,7.91-2.37s2.56-4,2.56-7.34A9.59,9.59,0,0,0,219,55.37a9.84,9.84,0,0,0-7.3-2.64Zm41-23.16V70.35a1.66,1.66,0,0,0,.51,1.29,2.8,2.8,0,0,0,1.81.61h3v2.28h-16V72.25h2.82a2.8,2.8,0,0,0,2.05-.67,2.52,2.52,0,0,0,.68-1.87V35.47a2.68,2.68,0,0,0-.82-2.19,4.06,4.06,0,0,0-2.75-1h-2.54V30l11.21-.49Zm16.13-.06a3.11,3.11,0,0,1,2.36,1,3.27,3.27,0,0,1,1,2.4,3.14,3.14,0,0,1-1,2.34,3.31,3.31,0,0,1-4.76,0,3.27,3.27,0,0,1-1-2.36,3.11,3.11,0,0,1,1-2.36A3.2,3.2,0,0,1,259.67,29.51ZM251.8,46.33,263.07,46V70.23a1.73,1.73,0,0,0,.49,1.41,2.65,2.65,0,0,0,1.74.61h3.18v2.28H252.4V72.25h3A2.25,2.25,0,0,0,258,69.73V52a3.21,3.21,0,0,0-1-2.54,4.26,4.26,0,0,0-2.87-.86H251.8V46.33ZM275.08,64c1.25,3.43,2.66,5.8,4.28,7.12a9,9,0,0,0,6,2,7.78,7.78,0,0,0,5-1.43A4.43,4.43,0,0,0,292.09,68a3.77,3.77,0,0,0-.64-2.19,4,4,0,0,0-1.78-1.43A42.86,42.86,0,0,0,283.75,63a23.4,23.4,0,0,1-6.36-1.9,7.16,7.16,0,0,1-2.8-2.71,7.5,7.5,0,0,1-1-3.77A8.55,8.55,0,0,1,275.65,49a9.24,9.24,0,0,1,7.5-3.2,11.3,11.3,0,0,1,6.79,2.28l2-2.1h1.23l.78,10h-2a12.54,12.54,0,0,0-3.58-6.13,8.4,8.4,0,0,0-5.56-1.87,6.82,6.82,0,0,0-4.5,1.38,4.32,4.32,0,0,0-1.62,3.4,3.59,3.59,0,0,0,1.51,2.93c1,.8,2.91,1.43,5.78,1.88a46.77,46.77,0,0,1,6.5,1.38,7.91,7.91,0,0,1,3.83,2.8,7.63,7.63,0,0,1,1.35,4.59,8.15,8.15,0,0,1-2.93,6.32,10.85,10.85,0,0,1-7.44,2.58,12.65,12.65,0,0,1-7.78-2.71l-2.18,2.52h-1.59l-.6-11.21h2Zm28.5,0c1.25,3.43,2.65,5.8,4.28,7.12a9,9,0,0,0,5.95,2,7.74,7.74,0,0,0,5-1.43A4.44,4.44,0,0,0,320.59,68a3.77,3.77,0,0,0-.64-2.19,4,4,0,0,0-1.78-1.43A43.26,43.26,0,0,0,312.25,63a23.38,23.38,0,0,1-6.37-1.9,7.13,7.13,0,0,1-2.79-2.71,7.51,7.51,0,0,1-1-3.77A8.6,8.6,0,0,1,304.14,49a9.26,9.26,0,0,1,7.5-3.2,11.31,11.31,0,0,1,6.8,2.28l2-2.1h1.23l.79,10h-2a12.53,12.53,0,0,0-3.57-6.13,8.41,8.41,0,0,0-5.57-1.87,6.79,6.79,0,0,0-4.49,1.38,4.32,4.32,0,0,0-1.62,3.4,3.61,3.61,0,0,0,1.5,2.93q1.47,1.2,5.79,1.88A47.13,47.13,0,0,1,319,59a7.91,7.91,0,0,1,3.83,2.8,7.63,7.63,0,0,1,1.35,4.59,8.15,8.15,0,0,1-2.93,6.32,10.88,10.88,0,0,1-7.45,2.58A12.62,12.62,0,0,1,306,72.6l-2.19,2.52h-1.58l-.6-11.21h2Z" transform="translate(-20.31 -25.58)"/><g id="g66"><polygon id="polygon56" class="cls-2" points="10.33 0 34.41 6.21 27.17 26.62 18.44 30 10.33 0"/><polygon id="polygon58" class="cls-3" points="69.03 10.64 62.48 34.28 42.11 27.01 38.87 18.22 69.03 10.64"/><polygon id="polygon60" class="cls-4" points="58.5 68.77 34.88 62.29 41.91 41.99 50.66 38.69 58.5 68.77"/><polygon id="polygon62" class="cls-5" points="0 58.34 6.68 34.2 27.15 41.84 30.41 50.7 0 58.34"/><polygon id="polygon64" class="cls-6" points="34.41 6.21 42.52 27.09 62.74 34.34 42.05 42.07 34.88 62.29 27.07 41.8 6.56 34.16 27.17 26.62 34.41 6.21"/></g><path class="cls-1" d="M94.37,84.15l3.58,5H96.12l-2.76-4-1.2,1.21v2.81H90.69V80.8h1.47v3.81l3.71-3.81h1.87Z" transform="translate(-20.31 -25.58)"/><path class="cls-1" d="M102.75,80.8c1.73,0,2.93.8,2.93,2.56A2.47,2.47,0,0,1,103,86h-2.37v3.23H99.11V80.8Zm-2.17,4h2c1,0,1.61-.39,1.61-1.38S103.43,82,102.5,82h-1.92Z" transform="translate(-20.31 -25.58)"/><path class="cls-1" d="M113.29,82H108.7v2.23H113v1.19H108.7v2.48h4.66v1.26h-6.13V80.8h6.06Z" transform="translate(-20.31 -25.58)"/><path class="cls-1" d="M122.05,89.19h-1.58l-.8-2.23h-3.33l-.82,2.23H114l3.25-8.41h1.57Zm-4-6.87-1.31,3.54h2.56Z" transform="translate(-20.31 -25.58)"/><path class="cls-1" d="M128.08,82.07H125.4v7.12h-1.47V82.07h-2.68V80.8h6.83Z" transform="translate(-20.31 -25.58)"/><path class="cls-1" d="M129.32,80.8h1.47v6.44l3.61-6.44h1.71v8.39h-1.47V82.75L131,89.19h-1.71Z" transform="translate(-20.31 -25.58)"/><path class="cls-1" d="M142,80.8c1.81,0,2.72.86,2.72,2.11a1.9,1.9,0,0,1-1.2,1.77,2,2,0,0,1,1.58,2,2.44,2.44,0,0,1-2.65,2.47h-4.29V80.8Zm-2.4,3.5h2c1.1,0,1.65-.31,1.65-1.16,0-1-.77-1.15-1.6-1.15h-2.06Zm0,3.69h2.21c1,0,1.82-.24,1.82-1.31s-.89-1.32-1.84-1.32h-2.19Z" transform="translate(-20.31 -25.58)"/><path class="cls-1" d="M148.31,89.19h-1.6V87.6h1.6Z" transform="translate(-20.31 -25.58)"/><path class="cls-1" d="M159.06,89.19h-1.4V82.72l-2.34,6.47h-1.2l-2.4-6.47v6.47h-1.39V80.8h2.07l2.34,6.57L157,80.8h2.05Z" transform="translate(-20.31 -25.58)"/><path class="cls-1" d="M168.19,89.19h-1.58l-.8-2.23h-3.33l-.82,2.23h-1.52l3.24-8.41H165Zm-4-6.87-1.31,3.54h2.56Z" transform="translate(-20.31 -25.58)"/><path class="cls-1" d="M173,80.8c1.73,0,2.92.8,2.92,2.56a2.47,2.47,0,0,1-2.72,2.6h-2.37v3.23H169.3V80.8Zm-2.17,4h2.05c.95,0,1.6-.39,1.6-1.38S173.63,82,172.7,82h-1.92Z" transform="translate(-20.31 -25.58)"/><path class="cls-1" d="M181.11,84.15l3.58,5h-1.83l-2.76-4-1.21,1.21v2.81h-1.46V80.8h1.46v3.81l3.72-3.81h1.86Z" transform="translate(-20.31 -25.58)"/><path class="cls-1" d="M191.86,82h-4.59v2.23h4.26v1.19h-4.26v2.48h4.66v1.26h-6.12V80.8h6.05Z" transform="translate(-20.31 -25.58)"/><path class="cls-1" d="M199.57,82.07H196.9v7.12h-1.48V82.07h-2.67V80.8h6.82Z" transform="translate(-20.31 -25.58)"/><path class="cls-1" d="M200.81,80.8h1.48v6.44l3.61-6.44h1.71v8.39h-1.48V82.75l-3.61,6.44h-1.71Z" transform="translate(-20.31 -25.58)"/><path class="cls-1" d="M216.42,89.19H215V85.42H211.1v3.77h-1.47V80.8h1.47v3.33H215V80.8h1.47Z" transform="translate(-20.31 -25.58)"/><path class="cls-1" d="M218.48,89.19V80.8h5.69v1.27H220v7.12Z" transform="translate(-20.31 -25.58)"/><path class="cls-1" d="M225.35,89.19h-1.6V87.6h1.6Z" transform="translate(-20.31 -25.58)"/><path class="cls-1" d="M234.14,89.19h-1.47V82.07h-3.85v7.12h-1.47V80.8h6.79Z" transform="translate(-20.31 -25.58)"/><path class="cls-1" d="M239.85,80.8c1.74,0,2.93.8,2.93,2.56a2.47,2.47,0,0,1-2.73,2.6h-2.37v3.23h-1.47V80.8Zm-2.17,4h2c1,0,1.61-.39,1.61-1.38S240.54,82,239.6,82h-1.92Z" transform="translate(-20.31 -25.58)"/><path class="cls-1" d="M252,85c0,2.62-1.64,4.4-4,4.4s-4-1.78-4-4.4c0-2.46,1.49-4.39,4.06-4.39C250.34,80.6,252,82.39,252,85Zm-6.58,0c0,2,1,3.19,2.57,3.19s2.52-1.25,2.52-3.18-1-3.15-2.54-3.15S245.4,83.07,245.4,85Z" transform="translate(-20.31 -25.58)"/><path class="cls-1" d="M259.68,91.28V89.19h-5.47v2.09h-1.43V87.92h.82a13.91,13.91,0,0,0,1.09-5.83V80.8h5.48v7.12h.94v3.36Zm-1-9.21h-2.56v.51a14.07,14.07,0,0,1-.95,5.34h3.51Z" transform="translate(-20.31 -25.58)"/><path class="cls-1" d="M266.24,80.8c1.82,0,2.73.86,2.73,2.11a1.91,1.91,0,0,1-1.2,1.77,2,2,0,0,1,1.58,2,2.44,2.44,0,0,1-2.66,2.47h-4.28V80.8Zm-2.39,3.5h2c1.1,0,1.66-.31,1.66-1.16,0-1-.77-1.15-1.61-1.15h-2Zm0,3.69h2.21c1,0,1.81-.24,1.81-1.31S267,85.36,266,85.36h-2.18Z" transform="translate(-20.31 -25.58)"/><path class="cls-1" d="M271,80.8h1.47v6.44l3.61-6.44h1.71v8.39h-1.47V82.75l-3.61,6.44H271Z" transform="translate(-20.31 -25.58)"/><path class="cls-1" d="M280.71,89.19h-1.84l3.63-4.83-3.23-3.56h1.82l3.27,3.77V80.8h1.48v3.77l3.28-3.77h1.81l-3.23,3.56,3.64,4.83H289.5l-2.75-3.77-.91,1v2.76h-1.48V86.43l-.9-1Z" transform="translate(-20.31 -25.58)"/><path class="cls-1" d="M298.47,82h-4.58v2.23h4.25v1.19h-4.25v2.48h4.65v1.26h-6.12V80.8h6.05Z" transform="translate(-20.31 -25.58)"/><path class="cls-1" d="M306.93,89.19h-1.47V85.42h-3.85v3.77h-1.47V80.8h1.47v3.33h3.85V80.8h1.47Z" transform="translate(-20.31 -25.58)"/><path class="cls-1" d="M309,80.8h1.48v6.44L314,80.8h1.72v8.39h-1.48V82.75l-3.61,6.44H309Z" transform="translate(-20.31 -25.58)"/><path class="cls-1" d="M323.83,82h-4.59v2.23h4.26v1.19h-4.26v2.48h4.66v1.26h-6.12V80.8h6.05Z" transform="translate(-20.31 -25.58)"/></svg>